<mxfile host="app.diagrams.net" agent="Mozilla/5.0 (Windows NT 10.0; Win64; x64) AppleWebKit/537.36 (KHTML, like Gecko) Chrome/127.0.0.0 Safari/537.36 Edg/127.0.0.0" version="24.7.6" pages="6">
  <diagram name="第 1 页" id="-xGEiGHafIDWMiw5CfLv">
    <mxGraphModel dx="2066" dy="1111" grid="1" gridSize="10" guides="1" tooltips="1" connect="1" arrows="1" fold="1" page="1" pageScale="1" pageWidth="827" pageHeight="1169" math="0" shadow="0">
      <root>
        <mxCell id="0" />
        <mxCell id="1" parent="0" />
        <mxCell id="Kp1tt69YHNHvb0lvO_A0-1" value="Back Office" style="rounded=0;whiteSpace=wrap;html=1;" vertex="1" parent="1">
          <mxGeometry x="80" y="110" width="120" height="60" as="geometry" />
        </mxCell>
        <mxCell id="Kp1tt69YHNHvb0lvO_A0-3" value="H5 / APP" style="rounded=0;whiteSpace=wrap;html=1;" vertex="1" parent="1">
          <mxGeometry x="80" y="440" width="120" height="60" as="geometry" />
        </mxCell>
        <mxCell id="Kp1tt69YHNHvb0lvO_A0-4" value="Award" style="rounded=0;whiteSpace=wrap;html=1;" vertex="1" parent="1">
          <mxGeometry x="480" y="680" width="120" height="60" as="geometry" />
        </mxCell>
        <mxCell id="Kp1tt69YHNHvb0lvO_A0-5" value="Player" style="rounded=0;whiteSpace=wrap;html=1;" vertex="1" parent="1">
          <mxGeometry x="320" y="440" width="120" height="60" as="geometry" />
        </mxCell>
        <mxCell id="Kp1tt69YHNHvb0lvO_A0-6" value="Agent" style="rounded=0;whiteSpace=wrap;html=1;" vertex="1" parent="1">
          <mxGeometry x="320" y="280" width="120" height="60" as="geometry" />
        </mxCell>
        <mxCell id="Kp1tt69YHNHvb0lvO_A0-7" value="Role" style="rounded=0;whiteSpace=wrap;html=1;" vertex="1" parent="1">
          <mxGeometry x="320" y="110" width="120" height="60" as="geometry" />
        </mxCell>
        <mxCell id="Kp1tt69YHNHvb0lvO_A0-8" value="Wallet" style="rounded=0;whiteSpace=wrap;html=1;" vertex="1" parent="1">
          <mxGeometry x="320" y="580" width="120" height="60" as="geometry" />
        </mxCell>
        <mxCell id="Kp1tt69YHNHvb0lvO_A0-9" value="Betting" style="rounded=0;whiteSpace=wrap;html=1;" vertex="1" parent="1">
          <mxGeometry x="320" y="680" width="120" height="60" as="geometry" />
        </mxCell>
        <mxCell id="Kp1tt69YHNHvb0lvO_A0-10" value="Report" style="whiteSpace=wrap;html=1;" vertex="1" parent="1">
          <mxGeometry x="320" y="820" width="120" height="60" as="geometry" />
        </mxCell>
        <mxCell id="Kp1tt69YHNHvb0lvO_A0-11" value="Log" style="rounded=0;whiteSpace=wrap;html=1;" vertex="1" parent="1">
          <mxGeometry x="510" y="110" width="120" height="60" as="geometry" />
        </mxCell>
        <mxCell id="Kp1tt69YHNHvb0lvO_A0-12" value="Casino" style="rounded=0;whiteSpace=wrap;html=1;" vertex="1" parent="1">
          <mxGeometry x="320" y="1060" width="120" height="60" as="geometry" />
        </mxCell>
        <mxCell id="Kp1tt69YHNHvb0lvO_A0-13" value="Game" style="rounded=0;whiteSpace=wrap;html=1;" vertex="1" parent="1">
          <mxGeometry x="320" y="960" width="120" height="60" as="geometry" />
        </mxCell>
        <mxCell id="Kp1tt69YHNHvb0lvO_A0-15" value="Payment" style="rounded=0;whiteSpace=wrap;html=1;" vertex="1" parent="1">
          <mxGeometry x="480" y="580" width="120" height="60" as="geometry" />
        </mxCell>
      </root>
    </mxGraphModel>
  </diagram>
  <diagram id="XSMoZcb3FUOJXV7P-8dy" name="Account Register">
    <mxGraphModel dx="1213" dy="738" grid="1" gridSize="10" guides="1" tooltips="1" connect="1" arrows="1" fold="1" page="1" pageScale="1" pageWidth="827" pageHeight="1169" math="0" shadow="0">
      <root>
        <mxCell id="0" />
        <mxCell id="1" parent="0" />
        <mxCell id="r-551a9Rtr5vMet4mDyP-3" style="edgeStyle=orthogonalEdgeStyle;rounded=0;orthogonalLoop=1;jettySize=auto;html=1;" parent="1" source="r-551a9Rtr5vMet4mDyP-2" target="r-551a9Rtr5vMet4mDyP-8" edge="1">
          <mxGeometry relative="1" as="geometry">
            <mxPoint x="211.5" y="105" as="targetPoint" />
            <Array as="points" />
          </mxGeometry>
        </mxCell>
        <mxCell id="r-551a9Rtr5vMet4mDyP-2" value="B2B2C&#xa;H5 Register" style="ellipse" parent="1" vertex="1">
          <mxGeometry x="50" y="70" width="110" height="70" as="geometry" />
        </mxCell>
        <mxCell id="r-551a9Rtr5vMet4mDyP-27" style="edgeStyle=orthogonalEdgeStyle;rounded=0;orthogonalLoop=1;jettySize=auto;html=1;entryX=0;entryY=0.5;entryDx=0;entryDy=0;" parent="1" source="r-551a9Rtr5vMet4mDyP-8" target="r-551a9Rtr5vMet4mDyP-26" edge="1">
          <mxGeometry relative="1" as="geometry">
            <mxPoint x="510" y="380" as="targetPoint" />
          </mxGeometry>
        </mxCell>
        <mxCell id="r-551a9Rtr5vMet4mDyP-8" value="App.AuthZ" style="rounded=0;whiteSpace=wrap;html=1;" parent="1" vertex="1">
          <mxGeometry x="220" y="75" width="120" height="60" as="geometry" />
        </mxCell>
        <mxCell id="r-551a9Rtr5vMet4mDyP-23" style="edgeStyle=orthogonalEdgeStyle;rounded=0;orthogonalLoop=1;jettySize=auto;html=1;" parent="1" source="r-551a9Rtr5vMet4mDyP-16" target="r-551a9Rtr5vMet4mDyP-17" edge="1">
          <mxGeometry relative="1" as="geometry" />
        </mxCell>
        <mxCell id="r-551a9Rtr5vMet4mDyP-16" value="B2B2C Agent Site&#xa;Agent Create Player" style="ellipse" parent="1" vertex="1">
          <mxGeometry x="50" y="260" width="110" height="70" as="geometry" />
        </mxCell>
        <mxCell id="r-551a9Rtr5vMet4mDyP-29" style="edgeStyle=orthogonalEdgeStyle;rounded=0;orthogonalLoop=1;jettySize=auto;html=1;entryX=0;entryY=0.5;entryDx=0;entryDy=0;" parent="1" source="r-551a9Rtr5vMet4mDyP-17" target="r-551a9Rtr5vMet4mDyP-26" edge="1">
          <mxGeometry relative="1" as="geometry" />
        </mxCell>
        <mxCell id="r-551a9Rtr5vMet4mDyP-17" value="B2C.AuthZ" style="rounded=0;whiteSpace=wrap;html=1;" parent="1" vertex="1">
          <mxGeometry x="220" y="265" width="120" height="60" as="geometry" />
        </mxCell>
        <mxCell id="r-551a9Rtr5vMet4mDyP-26" value="Create Player" style="swimlane;whiteSpace=wrap;html=1;" parent="1" vertex="1">
          <mxGeometry x="500" y="75" width="200" height="260" as="geometry">
            <mxRectangle x="510" y="210" width="140" height="30" as="alternateBounds" />
          </mxGeometry>
        </mxCell>
        <mxCell id="r-551a9Rtr5vMet4mDyP-10" value="Bo Player" style="rounded=0;whiteSpace=wrap;html=1;" parent="r-551a9Rtr5vMet4mDyP-26" vertex="1">
          <mxGeometry x="40" y="50" width="120" height="60" as="geometry" />
        </mxCell>
        <mxCell id="r-551a9Rtr5vMet4mDyP-12" value="Casino.Settings" style="rounded=0;whiteSpace=wrap;html=1;" parent="r-551a9Rtr5vMet4mDyP-26" vertex="1">
          <mxGeometry x="40" y="160" width="120" height="60" as="geometry" />
        </mxCell>
        <mxCell id="r-551a9Rtr5vMet4mDyP-32" style="edgeStyle=orthogonalEdgeStyle;rounded=0;orthogonalLoop=1;jettySize=auto;html=1;entryX=0;entryY=0.5;entryDx=0;entryDy=0;" parent="1" source="r-551a9Rtr5vMet4mDyP-30" target="r-551a9Rtr5vMet4mDyP-31" edge="1">
          <mxGeometry relative="1" as="geometry" />
        </mxCell>
        <mxCell id="r-551a9Rtr5vMet4mDyP-30" value="B2B Agent Site&#xa;Agent Create Player" style="ellipse" parent="1" vertex="1">
          <mxGeometry x="50" y="410" width="110" height="70" as="geometry" />
        </mxCell>
        <mxCell id="r-551a9Rtr5vMet4mDyP-33" style="edgeStyle=orthogonalEdgeStyle;rounded=0;orthogonalLoop=1;jettySize=auto;html=1;entryX=0;entryY=0.5;entryDx=0;entryDy=0;" parent="1" source="r-551a9Rtr5vMet4mDyP-31" target="r-551a9Rtr5vMet4mDyP-26" edge="1">
          <mxGeometry relative="1" as="geometry" />
        </mxCell>
        <mxCell id="r-551a9Rtr5vMet4mDyP-37" style="edgeStyle=orthogonalEdgeStyle;rounded=0;orthogonalLoop=1;jettySize=auto;html=1;" parent="1" source="r-551a9Rtr5vMet4mDyP-31" target="r-551a9Rtr5vMet4mDyP-36" edge="1">
          <mxGeometry relative="1" as="geometry" />
        </mxCell>
        <mxCell id="r-551a9Rtr5vMet4mDyP-38" value="Transfer Agent Score" style="edgeLabel;html=1;align=center;verticalAlign=middle;resizable=0;points=[];" parent="r-551a9Rtr5vMet4mDyP-37" vertex="1" connectable="0">
          <mxGeometry x="0.0457" y="1" relative="1" as="geometry">
            <mxPoint as="offset" />
          </mxGeometry>
        </mxCell>
        <mxCell id="r-551a9Rtr5vMet4mDyP-31" value="B2B.AuthZ" style="rounded=0;whiteSpace=wrap;html=1;" parent="1" vertex="1">
          <mxGeometry x="220" y="415" width="120" height="60" as="geometry" />
        </mxCell>
        <mxCell id="r-551a9Rtr5vMet4mDyP-36" value="Score.Counter" style="whiteSpace=wrap;html=1;" parent="1" vertex="1">
          <mxGeometry x="540" y="415" width="120" height="60" as="geometry" />
        </mxCell>
        <mxCell id="s8Uns4x-JZxhWfN31NG1-3" style="edgeStyle=orthogonalEdgeStyle;rounded=0;orthogonalLoop=1;jettySize=auto;html=1;entryX=0;entryY=0.5;entryDx=0;entryDy=0;" edge="1" parent="1" source="s8Uns4x-JZxhWfN31NG1-1" target="s8Uns4x-JZxhWfN31NG1-2">
          <mxGeometry relative="1" as="geometry" />
        </mxCell>
        <mxCell id="s8Uns4x-JZxhWfN31NG1-1" value="B2B2C&#xa;Landing page" style="ellipse" vertex="1" parent="1">
          <mxGeometry x="50" y="160" width="110" height="70" as="geometry" />
        </mxCell>
        <mxCell id="s8Uns4x-JZxhWfN31NG1-4" style="edgeStyle=orthogonalEdgeStyle;rounded=0;orthogonalLoop=1;jettySize=auto;html=1;entryX=0;entryY=0.5;entryDx=0;entryDy=0;" edge="1" parent="1" source="s8Uns4x-JZxhWfN31NG1-2" target="r-551a9Rtr5vMet4mDyP-26">
          <mxGeometry relative="1" as="geometry">
            <mxPoint x="490" y="160" as="targetPoint" />
          </mxGeometry>
        </mxCell>
        <mxCell id="s8Uns4x-JZxhWfN31NG1-2" value="Casual.Gateway" style="rounded=0;whiteSpace=wrap;html=1;" vertex="1" parent="1">
          <mxGeometry x="220" y="165" width="120" height="60" as="geometry" />
        </mxCell>
      </root>
    </mxGraphModel>
  </diagram>
  <diagram id="xDgWmLQy_LJcnyMmOT7P" name="Frontend">
    <mxGraphModel dx="1722" dy="926" grid="1" gridSize="10" guides="1" tooltips="1" connect="1" arrows="1" fold="1" page="1" pageScale="1" pageWidth="827" pageHeight="1169" math="0" shadow="0">
      <root>
        <mxCell id="0" />
        <mxCell id="1" parent="0" />
        <mxCell id="Sstu9Z1XNnlzyFas_uhN-1" value="Jili H5" style="ellipse;whiteSpace=wrap;html=1;aspect=fixed;" vertex="1" parent="1">
          <mxGeometry x="100" y="30" width="80" height="80" as="geometry" />
        </mxCell>
        <mxCell id="Sstu9Z1XNnlzyFas_uhN-2" value="Jclub H5" style="ellipse;whiteSpace=wrap;html=1;aspect=fixed;" vertex="1" parent="1">
          <mxGeometry x="230" y="30" width="80" height="80" as="geometry" />
        </mxCell>
        <mxCell id="Sstu9Z1XNnlzyFas_uhN-4" value="B2B2C&lt;div&gt;Agent site&lt;/div&gt;" style="ellipse;whiteSpace=wrap;html=1;aspect=fixed;" vertex="1" parent="1">
          <mxGeometry x="380" y="330" width="80" height="80" as="geometry" />
        </mxCell>
        <mxCell id="Sstu9Z1XNnlzyFas_uhN-5" value="B2B&lt;div&gt;Agent site&lt;/div&gt;" style="ellipse;whiteSpace=wrap;html=1;aspect=fixed;" vertex="1" parent="1">
          <mxGeometry x="380" y="430" width="80" height="80" as="geometry" />
        </mxCell>
        <mxCell id="Sstu9Z1XNnlzyFas_uhN-6" value="&lt;div&gt;Ent (API)&lt;/div&gt;&lt;div&gt;Agent site&lt;/div&gt;" style="ellipse;whiteSpace=wrap;html=1;aspect=fixed;" vertex="1" parent="1">
          <mxGeometry x="380" y="530" width="80" height="80" as="geometry" />
        </mxCell>
        <mxCell id="Sstu9Z1XNnlzyFas_uhN-7" value="&lt;div&gt;&lt;span style=&quot;background-color: initial;&quot;&gt;Area&lt;br&gt;Agent site&lt;/span&gt;&lt;br&gt;&lt;/div&gt;" style="ellipse;whiteSpace=wrap;html=1;aspect=fixed;" vertex="1" parent="1">
          <mxGeometry x="380" y="650" width="80" height="80" as="geometry" />
        </mxCell>
        <mxCell id="Sstu9Z1XNnlzyFas_uhN-8" value="B2B2C&lt;br&gt;Landing Page" style="ellipse;whiteSpace=wrap;html=1;aspect=fixed;" vertex="1" parent="1">
          <mxGeometry x="100" y="150" width="80" height="80" as="geometry" />
        </mxCell>
        <mxCell id="Sstu9Z1XNnlzyFas_uhN-9" value="B2B&lt;br&gt;Landing Page" style="ellipse;whiteSpace=wrap;html=1;aspect=fixed;" vertex="1" parent="1">
          <mxGeometry x="230" y="150" width="80" height="80" as="geometry" />
        </mxCell>
        <mxCell id="Sstu9Z1XNnlzyFas_uhN-10" value="ENT&lt;br&gt;Landing Page" style="ellipse;whiteSpace=wrap;html=1;aspect=fixed;" vertex="1" parent="1">
          <mxGeometry x="354" y="150" width="80" height="80" as="geometry" />
        </mxCell>
        <mxCell id="Sstu9Z1XNnlzyFas_uhN-23" value="Company site" style="swimlane;whiteSpace=wrap;html=1;" vertex="1" parent="1">
          <mxGeometry x="120" y="310" width="210" height="440" as="geometry" />
        </mxCell>
        <mxCell id="Sstu9Z1XNnlzyFas_uhN-27" value="Area" style="rounded=1;whiteSpace=wrap;html=1;" vertex="1" parent="Sstu9Z1XNnlzyFas_uhN-23">
          <mxGeometry x="40" y="350" width="140" height="60" as="geometry" />
        </mxCell>
        <mxCell id="Sstu9Z1XNnlzyFas_uhN-26" value="ENT" style="rounded=1;whiteSpace=wrap;html=1;" vertex="1" parent="Sstu9Z1XNnlzyFas_uhN-23">
          <mxGeometry x="40" y="235" width="140" height="60" as="geometry" />
        </mxCell>
        <mxCell id="Sstu9Z1XNnlzyFas_uhN-25" value="B2B" style="rounded=1;whiteSpace=wrap;html=1;" vertex="1" parent="Sstu9Z1XNnlzyFas_uhN-23">
          <mxGeometry x="40" y="140" width="140" height="60" as="geometry" />
        </mxCell>
        <mxCell id="Sstu9Z1XNnlzyFas_uhN-24" value="B2B2C" style="rounded=1;whiteSpace=wrap;html=1;" vertex="1" parent="Sstu9Z1XNnlzyFas_uhN-23">
          <mxGeometry x="40" y="50" width="140" height="60" as="geometry" />
        </mxCell>
        <mxCell id="Sstu9Z1XNnlzyFas_uhN-29" value="" style="endArrow=none;dashed=1;html=1;dashPattern=1 3;strokeWidth=2;rounded=0;" edge="1" parent="1">
          <mxGeometry width="50" height="50" relative="1" as="geometry">
            <mxPoint x="40" y="630" as="sourcePoint" />
            <mxPoint x="530" y="630" as="targetPoint" />
          </mxGeometry>
        </mxCell>
        <mxCell id="Sstu9Z1XNnlzyFas_uhN-30" value="Funky" style="text;html=1;align=center;verticalAlign=middle;whiteSpace=wrap;rounded=0;" vertex="1" parent="1">
          <mxGeometry x="40" y="670" width="60" height="30" as="geometry" />
        </mxCell>
        <mxCell id="Sstu9Z1XNnlzyFas_uhN-38" value="&lt;div&gt;&lt;span style=&quot;background-color: initial;&quot;&gt;Operation&lt;br&gt;site&lt;br&gt;&lt;/span&gt;= System BackOffice&lt;/div&gt;" style="ellipse;whiteSpace=wrap;html=1;aspect=fixed;" vertex="1" parent="1">
          <mxGeometry x="200" y="830" width="80" height="80" as="geometry" />
        </mxCell>
        <mxCell id="Sstu9Z1XNnlzyFas_uhN-39" value="Jclub B2B2C H5" style="ellipse;whiteSpace=wrap;html=1;aspect=fixed;" vertex="1" parent="1">
          <mxGeometry x="350" y="40" width="80" height="80" as="geometry" />
        </mxCell>
      </root>
    </mxGraphModel>
  </diagram>
  <diagram id="StDBX1d2r4VwQ4qguYf7" name="Backoffice ">
    <mxGraphModel dx="1213" dy="738" grid="1" gridSize="10" guides="1" tooltips="1" connect="1" arrows="1" fold="1" page="1" pageScale="1" pageWidth="827" pageHeight="1169" math="0" shadow="0">
      <root>
        <mxCell id="0" />
        <mxCell id="1" parent="0" />
        <mxCell id="F_R-DKUI84JXMEq4t1ah-2" value="&lt;span style=&quot;font-weight: 700;&quot;&gt;法幣 Affiliates&lt;/span&gt;" style="swimlane;fontStyle=0;childLayout=stackLayout;horizontal=1;startSize=30;horizontalStack=0;resizeParent=1;resizeParentMax=0;resizeLast=0;collapsible=1;marginBottom=0;whiteSpace=wrap;html=1;" parent="1" vertex="1">
          <mxGeometry x="284" y="350" width="140" height="60" as="geometry" />
        </mxCell>
        <mxCell id="F_R-DKUI84JXMEq4t1ah-3" value="子線 Agent Mgmt" style="text;strokeColor=none;fillColor=none;align=left;verticalAlign=middle;spacingLeft=4;spacingRight=4;overflow=hidden;points=[[0,0.5],[1,0.5]];portConstraint=eastwest;rotatable=0;whiteSpace=wrap;html=1;" parent="F_R-DKUI84JXMEq4t1ah-2" vertex="1">
          <mxGeometry y="30" width="140" height="30" as="geometry" />
        </mxCell>
        <mxCell id="F_R-DKUI84JXMEq4t1ah-6" value="&lt;span style=&quot;text-align: left;&quot;&gt;Organization&amp;nbsp;&lt;/span&gt;Site" style="swimlane;fontStyle=0;childLayout=stackLayout;horizontal=1;startSize=30;horizontalStack=0;resizeParent=1;resizeParentMax=0;resizeLast=0;collapsible=1;marginBottom=0;whiteSpace=wrap;html=1;" parent="1" vertex="1">
          <mxGeometry x="40" y="140" width="170" height="270" as="geometry" />
        </mxCell>
        <mxCell id="F_R-DKUI84JXMEq4t1ah-7" value="BO Account Mgmt &amp;amp; Auth" style="text;strokeColor=none;fillColor=none;align=left;verticalAlign=middle;spacingLeft=4;spacingRight=4;overflow=hidden;points=[[0,0.5],[1,0.5]];portConstraint=eastwest;rotatable=0;whiteSpace=wrap;html=1;" parent="F_R-DKUI84JXMEq4t1ah-6" vertex="1">
          <mxGeometry y="30" width="170" height="30" as="geometry" />
        </mxCell>
        <mxCell id="F_R-DKUI84JXMEq4t1ah-8" value="Agent Player Profile setting" style="text;strokeColor=none;fillColor=none;align=left;verticalAlign=middle;spacingLeft=4;spacingRight=4;overflow=hidden;points=[[0,0.5],[1,0.5]];portConstraint=eastwest;rotatable=0;whiteSpace=wrap;html=1;" parent="F_R-DKUI84JXMEq4t1ah-6" vertex="1">
          <mxGeometry y="60" width="170" height="30" as="geometry" />
        </mxCell>
        <mxCell id="F_R-DKUI84JXMEq4t1ah-9" value="Report" style="text;strokeColor=none;fillColor=none;align=left;verticalAlign=middle;spacingLeft=4;spacingRight=4;overflow=hidden;points=[[0,0.5],[1,0.5]];portConstraint=eastwest;rotatable=0;whiteSpace=wrap;html=1;" parent="F_R-DKUI84JXMEq4t1ah-6" vertex="1">
          <mxGeometry y="90" width="170" height="30" as="geometry" />
        </mxCell>
        <mxCell id="F_R-DKUI84JXMEq4t1ah-75" value="Payment" style="text;strokeColor=none;fillColor=none;align=left;verticalAlign=middle;spacingLeft=4;spacingRight=4;overflow=hidden;points=[[0,0.5],[1,0.5]];portConstraint=eastwest;rotatable=0;whiteSpace=wrap;html=1;" parent="F_R-DKUI84JXMEq4t1ah-6" vertex="1">
          <mxGeometry y="120" width="170" height="30" as="geometry" />
        </mxCell>
        <mxCell id="F_R-DKUI84JXMEq4t1ah-10" value="CRM 客服" style="text;strokeColor=none;fillColor=none;align=left;verticalAlign=middle;spacingLeft=4;spacingRight=4;overflow=hidden;points=[[0,0.5],[1,0.5]];portConstraint=eastwest;rotatable=0;whiteSpace=wrap;html=1;" parent="F_R-DKUI84JXMEq4t1ah-6" vertex="1">
          <mxGeometry y="150" width="170" height="30" as="geometry" />
        </mxCell>
        <mxCell id="F_R-DKUI84JXMEq4t1ah-77" value="Sale kits" style="text;strokeColor=none;fillColor=none;align=left;verticalAlign=middle;spacingLeft=4;spacingRight=4;overflow=hidden;points=[[0,0.5],[1,0.5]];portConstraint=eastwest;rotatable=0;whiteSpace=wrap;html=1;" parent="F_R-DKUI84JXMEq4t1ah-6" vertex="1">
          <mxGeometry y="180" width="170" height="30" as="geometry" />
        </mxCell>
        <mxCell id="F_R-DKUI84JXMEq4t1ah-11" value="Payment Requisition" style="text;strokeColor=none;fillColor=none;align=left;verticalAlign=middle;spacingLeft=4;spacingRight=4;overflow=hidden;points=[[0,0.5],[1,0.5]];portConstraint=eastwest;rotatable=0;whiteSpace=wrap;html=1;" parent="F_R-DKUI84JXMEq4t1ah-6" vertex="1">
          <mxGeometry y="210" width="170" height="30" as="geometry" />
        </mxCell>
        <mxCell id="F_R-DKUI84JXMEq4t1ah-63" value="Service Provider" style="text;strokeColor=none;fillColor=none;align=left;verticalAlign=middle;spacingLeft=4;spacingRight=4;overflow=hidden;points=[[0,0.5],[1,0.5]];portConstraint=eastwest;rotatable=0;whiteSpace=wrap;html=1;" parent="F_R-DKUI84JXMEq4t1ah-6" vertex="1">
          <mxGeometry y="240" width="170" height="30" as="geometry" />
        </mxCell>
        <mxCell id="F_R-DKUI84JXMEq4t1ah-13" style="edgeStyle=orthogonalEdgeStyle;rounded=0;orthogonalLoop=1;jettySize=auto;html=1;" parent="1" source="F_R-DKUI84JXMEq4t1ah-3" target="F_R-DKUI84JXMEq4t1ah-6" edge="1">
          <mxGeometry relative="1" as="geometry" />
        </mxCell>
        <mxCell id="F_R-DKUI84JXMEq4t1ah-14" value="Company Back Office" style="swimlane;fontStyle=0;childLayout=stackLayout;horizontal=1;startSize=30;horizontalStack=0;resizeParent=1;resizeParentMax=0;resizeLast=0;collapsible=1;marginBottom=0;whiteSpace=wrap;html=1;" parent="1" vertex="1">
          <mxGeometry x="40" y="460" width="170" height="60" as="geometry" />
        </mxCell>
        <mxCell id="F_R-DKUI84JXMEq4t1ah-15" value="SMA Create &amp;amp;&amp;nbsp;&lt;span style=&quot;background-color: initial;&quot;&gt;Mgmt&lt;/span&gt;" style="text;strokeColor=none;fillColor=none;align=left;verticalAlign=middle;spacingLeft=4;spacingRight=4;overflow=hidden;points=[[0,0.5],[1,0.5]];portConstraint=eastwest;rotatable=0;whiteSpace=wrap;html=1;" parent="F_R-DKUI84JXMEq4t1ah-14" vertex="1">
          <mxGeometry y="30" width="170" height="30" as="geometry" />
        </mxCell>
        <mxCell id="F_R-DKUI84JXMEq4t1ah-22" value="&lt;h1 style=&quot;margin-top: 0px;&quot;&gt;SMA Or Company?&lt;/h1&gt;" style="text;html=1;whiteSpace=wrap;overflow=hidden;rounded=0;" parent="1" vertex="1">
          <mxGeometry x="50" y="40" width="330" height="40" as="geometry" />
        </mxCell>
        <mxCell id="F_R-DKUI84JXMEq4t1ah-23" value="Operation Site" style="swimlane;fontStyle=0;childLayout=stackLayout;horizontal=1;startSize=30;horizontalStack=0;resizeParent=1;resizeParentMax=0;resizeLast=0;collapsible=1;marginBottom=0;whiteSpace=wrap;html=1;" parent="1" vertex="1">
          <mxGeometry x="40" y="590" width="170" height="180" as="geometry" />
        </mxCell>
        <mxCell id="F_R-DKUI84JXMEq4t1ah-82" value="&lt;span style=&quot;background-color: transparent; color: rgb(89, 89, 89); font-family: Lato, sans-serif; text-align: center; white-space-collapse: preserve;&quot;&gt;&lt;font style=&quot;font-size: 12px;&quot;&gt;遊戲選單&lt;/font&gt;&lt;/span&gt;" style="text;strokeColor=none;fillColor=none;align=left;verticalAlign=middle;spacingLeft=4;spacingRight=4;overflow=hidden;points=[[0,0.5],[1,0.5]];portConstraint=eastwest;rotatable=0;whiteSpace=wrap;html=1;" parent="F_R-DKUI84JXMEq4t1ah-23" vertex="1">
          <mxGeometry y="30" width="170" height="30" as="geometry" />
        </mxCell>
        <mxCell id="F_R-DKUI84JXMEq4t1ah-86" value="&lt;div style=&quot;text-align: center;&quot;&gt;&lt;span style=&quot;background-color: initial; white-space-collapse: preserve;&quot;&gt;&lt;font face=&quot;Lato, sans-serif&quot; color=&quot;#595959&quot;&gt;活動開啟關閉&lt;/font&gt;&lt;/span&gt;&lt;/div&gt;" style="text;strokeColor=none;fillColor=none;align=left;verticalAlign=middle;spacingLeft=4;spacingRight=4;overflow=hidden;points=[[0,0.5],[1,0.5]];portConstraint=eastwest;rotatable=0;whiteSpace=wrap;html=1;" parent="F_R-DKUI84JXMEq4t1ah-23" vertex="1">
          <mxGeometry y="60" width="170" height="30" as="geometry" />
        </mxCell>
        <mxCell id="F_R-DKUI84JXMEq4t1ah-87" value="&lt;div style=&quot;text-align: center;&quot;&gt;&lt;font face=&quot;Lato, sans-serif&quot; color=&quot;#595959&quot;&gt;&lt;span style=&quot;white-space-collapse: preserve;&quot;&gt;Banner上下架&lt;br/&gt;&lt;/span&gt;&lt;/font&gt;&lt;/div&gt;" style="text;strokeColor=none;fillColor=none;align=left;verticalAlign=middle;spacingLeft=4;spacingRight=4;overflow=hidden;points=[[0,0.5],[1,0.5]];portConstraint=eastwest;rotatable=0;whiteSpace=wrap;html=1;" parent="F_R-DKUI84JXMEq4t1ah-23" vertex="1">
          <mxGeometry y="90" width="170" height="30" as="geometry" />
        </mxCell>
        <mxCell id="F_R-DKUI84JXMEq4t1ah-88" value="&lt;div style=&quot;text-align: center;&quot;&gt;&lt;font face=&quot;Lato, sans-serif&quot; color=&quot;#595959&quot;&gt;&lt;span style=&quot;white-space-collapse: preserve;&quot;&gt;社群媒體設定&lt;br/&gt;&lt;/span&gt;&lt;/font&gt;&lt;/div&gt;" style="text;strokeColor=none;fillColor=none;align=left;verticalAlign=middle;spacingLeft=4;spacingRight=4;overflow=hidden;points=[[0,0.5],[1,0.5]];portConstraint=eastwest;rotatable=0;whiteSpace=wrap;html=1;" parent="F_R-DKUI84JXMEq4t1ah-23" vertex="1">
          <mxGeometry y="120" width="170" height="30" as="geometry" />
        </mxCell>
        <mxCell id="F_R-DKUI84JXMEq4t1ah-89" value="&lt;div style=&quot;text-align: center;&quot;&gt;&lt;font face=&quot;Lato, sans-serif&quot; color=&quot;#595959&quot;&gt;&lt;span style=&quot;white-space-collapse: preserve;&quot;&gt;SEO服務&lt;/span&gt;&lt;br&gt;&lt;/font&gt;&lt;/div&gt;" style="text;strokeColor=none;fillColor=none;align=left;verticalAlign=middle;spacingLeft=4;spacingRight=4;overflow=hidden;points=[[0,0.5],[1,0.5]];portConstraint=eastwest;rotatable=0;whiteSpace=wrap;html=1;" parent="F_R-DKUI84JXMEq4t1ah-23" vertex="1">
          <mxGeometry y="150" width="170" height="30" as="geometry" />
        </mxCell>
        <mxCell id="F_R-DKUI84JXMEq4t1ah-45" value="SMA" style="swimlane;fontStyle=0;childLayout=stackLayout;horizontal=1;startSize=30;horizontalStack=0;resizeParent=1;resizeParentMax=0;resizeLast=0;collapsible=1;marginBottom=0;whiteSpace=wrap;html=1;" parent="1" vertex="1">
          <mxGeometry x="329" y="60" width="170" height="180" as="geometry" />
        </mxCell>
        <mxCell id="F_R-DKUI84JXMEq4t1ah-47" value="Payment" style="text;strokeColor=none;fillColor=none;align=left;verticalAlign=middle;spacingLeft=4;spacingRight=4;overflow=hidden;points=[[0,0.5],[1,0.5]];portConstraint=eastwest;rotatable=0;whiteSpace=wrap;html=1;" parent="F_R-DKUI84JXMEq4t1ah-45" vertex="1">
          <mxGeometry y="30" width="170" height="30" as="geometry" />
        </mxCell>
        <mxCell id="F_R-DKUI84JXMEq4t1ah-48" value="One Currency" style="text;strokeColor=none;fillColor=none;align=left;verticalAlign=middle;spacingLeft=4;spacingRight=4;overflow=hidden;points=[[0,0.5],[1,0.5]];portConstraint=eastwest;rotatable=0;whiteSpace=wrap;html=1;" parent="F_R-DKUI84JXMEq4t1ah-45" vertex="1">
          <mxGeometry y="60" width="170" height="30" as="geometry" />
        </mxCell>
        <mxCell id="F_R-DKUI84JXMEq4t1ah-50" value="SMA With BO Account Auth" style="text;strokeColor=none;fillColor=none;align=left;verticalAlign=middle;spacingLeft=4;spacingRight=4;overflow=hidden;points=[[0,0.5],[1,0.5]];portConstraint=eastwest;rotatable=0;whiteSpace=wrap;html=1;" parent="F_R-DKUI84JXMEq4t1ah-45" vertex="1">
          <mxGeometry y="90" width="170" height="30" as="geometry" />
        </mxCell>
        <mxCell id="F_R-DKUI84JXMEq4t1ah-60" value="Player Mgmt" style="text;strokeColor=none;fillColor=none;align=left;verticalAlign=middle;spacingLeft=4;spacingRight=4;overflow=hidden;points=[[0,0.5],[1,0.5]];portConstraint=eastwest;rotatable=0;whiteSpace=wrap;html=1;" parent="F_R-DKUI84JXMEq4t1ah-45" vertex="1">
          <mxGeometry y="120" width="170" height="30" as="geometry" />
        </mxCell>
        <mxCell id="F_R-DKUI84JXMEq4t1ah-61" value="Agent mgmt" style="text;strokeColor=none;fillColor=none;align=left;verticalAlign=middle;spacingLeft=4;spacingRight=4;overflow=hidden;points=[[0,0.5],[1,0.5]];portConstraint=eastwest;rotatable=0;whiteSpace=wrap;html=1;" parent="F_R-DKUI84JXMEq4t1ah-45" vertex="1">
          <mxGeometry y="150" width="170" height="30" as="geometry" />
        </mxCell>
        <mxCell id="F_R-DKUI84JXMEq4t1ah-51" value="&lt;span style=&quot;text-align: left;&quot;&gt;Organization&lt;/span&gt;" style="swimlane;fontStyle=0;childLayout=stackLayout;horizontal=1;startSize=30;horizontalStack=0;resizeParent=1;resizeParentMax=0;resizeLast=0;collapsible=1;marginBottom=0;whiteSpace=wrap;html=1;" parent="1" vertex="1">
          <mxGeometry x="550" y="60" width="170" height="120" as="geometry" />
        </mxCell>
        <mxCell id="F_R-DKUI84JXMEq4t1ah-52" value="Report By Organization" style="text;strokeColor=none;fillColor=none;align=left;verticalAlign=middle;spacingLeft=4;spacingRight=4;overflow=hidden;points=[[0,0.5],[1,0.5]];portConstraint=eastwest;rotatable=0;whiteSpace=wrap;html=1;" parent="F_R-DKUI84JXMEq4t1ah-51" vertex="1">
          <mxGeometry y="30" width="170" height="30" as="geometry" />
        </mxCell>
        <mxCell id="F_R-DKUI84JXMEq4t1ah-58" value="Multi Currency" style="text;strokeColor=none;fillColor=none;align=left;verticalAlign=middle;spacingLeft=4;spacingRight=4;overflow=hidden;points=[[0,0.5],[1,0.5]];portConstraint=eastwest;rotatable=0;whiteSpace=wrap;html=1;" parent="F_R-DKUI84JXMEq4t1ah-51" vertex="1">
          <mxGeometry y="60" width="170" height="30" as="geometry" />
        </mxCell>
        <mxCell id="F_R-DKUI84JXMEq4t1ah-68" value="SMA -&amp;gt; Currency Account" style="text;strokeColor=none;fillColor=none;align=left;verticalAlign=middle;spacingLeft=4;spacingRight=4;overflow=hidden;points=[[0,0.5],[1,0.5]];portConstraint=eastwest;rotatable=0;whiteSpace=wrap;html=1;" parent="F_R-DKUI84JXMEq4t1ah-51" vertex="1">
          <mxGeometry y="90" width="170" height="30" as="geometry" />
        </mxCell>
        <mxCell id="F_R-DKUI84JXMEq4t1ah-69" value="Funky" style="swimlane;fontStyle=0;childLayout=stackLayout;horizontal=1;startSize=30;horizontalStack=0;resizeParent=1;resizeParentMax=0;resizeLast=0;collapsible=1;marginBottom=0;whiteSpace=wrap;html=1;" parent="1" vertex="1">
          <mxGeometry x="515" y="340" width="170" height="180" as="geometry" />
        </mxCell>
        <mxCell id="F_R-DKUI84JXMEq4t1ah-57" value="Organization Account Mgmt" style="text;strokeColor=none;fillColor=none;align=left;verticalAlign=middle;spacingLeft=4;spacingRight=4;overflow=hidden;points=[[0,0.5],[1,0.5]];portConstraint=eastwest;rotatable=0;whiteSpace=wrap;html=1;" parent="F_R-DKUI84JXMEq4t1ah-69" vertex="1">
          <mxGeometry y="30" width="170" height="30" as="geometry" />
        </mxCell>
        <mxCell id="F_R-DKUI84JXMEq4t1ah-71" value="Multi Currency" style="text;strokeColor=none;fillColor=none;align=left;verticalAlign=middle;spacingLeft=4;spacingRight=4;overflow=hidden;points=[[0,0.5],[1,0.5]];portConstraint=eastwest;rotatable=0;whiteSpace=wrap;html=1;" parent="F_R-DKUI84JXMEq4t1ah-69" vertex="1">
          <mxGeometry y="60" width="170" height="30" as="geometry" />
        </mxCell>
        <mxCell id="F_R-DKUI84JXMEq4t1ah-72" value="SMA -&amp;gt; Currency Account" style="text;strokeColor=none;fillColor=none;align=left;verticalAlign=middle;spacingLeft=4;spacingRight=4;overflow=hidden;points=[[0,0.5],[1,0.5]];portConstraint=eastwest;rotatable=0;whiteSpace=wrap;html=1;" parent="F_R-DKUI84JXMEq4t1ah-69" vertex="1">
          <mxGeometry y="90" width="170" height="30" as="geometry" />
        </mxCell>
        <mxCell id="F_R-DKUI84JXMEq4t1ah-73" value="Report" style="text;strokeColor=none;fillColor=none;align=left;verticalAlign=middle;spacingLeft=4;spacingRight=4;overflow=hidden;points=[[0,0.5],[1,0.5]];portConstraint=eastwest;rotatable=0;whiteSpace=wrap;html=1;" parent="F_R-DKUI84JXMEq4t1ah-69" vertex="1">
          <mxGeometry y="120" width="170" height="30" as="geometry" />
        </mxCell>
        <mxCell id="F_R-DKUI84JXMEq4t1ah-74" value="Agent mgmt" style="text;strokeColor=none;fillColor=none;align=left;verticalAlign=middle;spacingLeft=4;spacingRight=4;overflow=hidden;points=[[0,0.5],[1,0.5]];portConstraint=eastwest;rotatable=0;whiteSpace=wrap;html=1;" parent="F_R-DKUI84JXMEq4t1ah-69" vertex="1">
          <mxGeometry y="150" width="170" height="30" as="geometry" />
        </mxCell>
      </root>
    </mxGraphModel>
  </diagram>
  <diagram id="WNM8uydDtWavXWIVNQzS" name="Backoffice Business Flow">
    <mxGraphModel dx="1213" dy="738" grid="1" gridSize="10" guides="1" tooltips="1" connect="1" arrows="1" fold="1" page="1" pageScale="1" pageWidth="827" pageHeight="1169" math="0" shadow="0">
      <root>
        <mxCell id="0" />
        <mxCell id="1" parent="0" />
        <mxCell id="l2qhlBH_-O0kFgMxODcO-1" value="Create &lt;br&gt;Organization" style="shape=step;perimeter=stepPerimeter;whiteSpace=wrap;html=1;fixedSize=1;" vertex="1" parent="1">
          <mxGeometry x="34" y="130" width="120" height="80" as="geometry" />
        </mxCell>
        <mxCell id="l2qhlBH_-O0kFgMxODcO-2" value="Organization&lt;br&gt;Login" style="shape=step;perimeter=stepPerimeter;whiteSpace=wrap;html=1;fixedSize=1;" vertex="1" parent="1">
          <mxGeometry x="164" y="130" width="120" height="80" as="geometry" />
        </mxCell>
        <mxCell id="l2qhlBH_-O0kFgMxODcO-3" value="Register Code" style="shape=step;perimeter=stepPerimeter;whiteSpace=wrap;html=1;fixedSize=1;" vertex="1" parent="1">
          <mxGeometry x="288" y="130" width="120" height="80" as="geometry" />
        </mxCell>
        <mxCell id="l2qhlBH_-O0kFgMxODcO-4" value="Register Player" style="shape=step;perimeter=stepPerimeter;whiteSpace=wrap;html=1;fixedSize=1;" vertex="1" parent="1">
          <mxGeometry x="414" y="130" width="120" height="80" as="geometry" />
        </mxCell>
        <mxCell id="l2qhlBH_-O0kFgMxODcO-5" value="Report" style="shape=step;perimeter=stepPerimeter;whiteSpace=wrap;html=1;fixedSize=1;" vertex="1" parent="1">
          <mxGeometry x="164" y="260" width="120" height="80" as="geometry" />
        </mxCell>
        <mxCell id="l2qhlBH_-O0kFgMxODcO-6" value="CRM 客服" style="shape=step;perimeter=stepPerimeter;whiteSpace=wrap;html=1;fixedSize=1;" vertex="1" parent="1">
          <mxGeometry x="304" y="260" width="120" height="80" as="geometry" />
        </mxCell>
        <mxCell id="l2qhlBH_-O0kFgMxODcO-7" value="Betting" style="shape=step;perimeter=stepPerimeter;whiteSpace=wrap;html=1;fixedSize=1;" vertex="1" parent="1">
          <mxGeometry x="34" y="260" width="120" height="80" as="geometry" />
        </mxCell>
        <mxCell id="l2qhlBH_-O0kFgMxODcO-8" value="Score Wallet" style="shape=step;perimeter=stepPerimeter;whiteSpace=wrap;html=1;fixedSize=1;" vertex="1" parent="1">
          <mxGeometry x="534" y="130" width="120" height="80" as="geometry" />
        </mxCell>
        <mxCell id="l2qhlBH_-O0kFgMxODcO-9" value="Payment" style="shape=step;perimeter=stepPerimeter;whiteSpace=wrap;html=1;fixedSize=1;" vertex="1" parent="1">
          <mxGeometry x="674" y="130" width="120" height="80" as="geometry" />
        </mxCell>
      </root>
    </mxGraphModel>
  </diagram>
  <diagram id="wytPQMxdc3aAiX8_xS4U" name="Develop Order">
    <mxGraphModel dx="1213" dy="736" grid="1" gridSize="10" guides="1" tooltips="1" connect="1" arrows="1" fold="1" page="1" pageScale="1" pageWidth="827" pageHeight="1169" math="0" shadow="0">
      <root>
        <mxCell id="0" />
        <mxCell id="1" parent="0" />
        <mxCell id="mWx5hDMgx2Dgxl-d4mNW-16" value="Need" style="swimlane;fontStyle=0;childLayout=stackLayout;horizontal=1;startSize=30;horizontalStack=0;resizeParent=1;resizeParentMax=0;resizeLast=0;collapsible=1;marginBottom=0;whiteSpace=wrap;html=1;" parent="1" vertex="1">
          <mxGeometry x="980" y="110" width="260" height="60" as="geometry" />
        </mxCell>
        <mxCell id="mWx5hDMgx2Dgxl-d4mNW-26" value="&lt;div style=&quot;text-align: center;&quot;&gt;&lt;span style=&quot;background-color: initial;&quot;&gt;Organization will have theme, CRM,&amp;nbsp;&lt;/span&gt;&lt;span style=&quot;background-color: initial;&quot;&gt;payment&lt;/span&gt;&lt;span style=&quot;background-color: initial;&quot;&gt;&amp;nbsp;&lt;/span&gt;&lt;/div&gt;" style="text;strokeColor=none;fillColor=none;align=left;verticalAlign=middle;spacingLeft=4;spacingRight=4;overflow=hidden;points=[[0,0.5],[1,0.5]];portConstraint=eastwest;rotatable=0;whiteSpace=wrap;html=1;" parent="mWx5hDMgx2Dgxl-d4mNW-16" vertex="1">
          <mxGeometry y="30" width="260" height="30" as="geometry" />
        </mxCell>
        <mxCell id="mWx5hDMgx2Dgxl-d4mNW-39" value="Need" style="swimlane;fontStyle=0;childLayout=stackLayout;horizontal=1;startSize=30;horizontalStack=0;resizeParent=1;resizeParentMax=0;resizeLast=0;collapsible=1;marginBottom=0;whiteSpace=wrap;html=1;" parent="1" vertex="1">
          <mxGeometry x="970" y="690" width="260" height="120" as="geometry" />
        </mxCell>
        <mxCell id="sMFta4gp6KuNshNMrOfS-23" value="&lt;div style=&quot;text-align: center;&quot;&gt;&lt;span style=&quot;background-color: initial;&quot;&gt;Organization will see only their players&amp;nbsp;&lt;/span&gt;&lt;/div&gt;" style="text;strokeColor=none;fillColor=none;align=left;verticalAlign=middle;spacingLeft=4;spacingRight=4;overflow=hidden;points=[[0,0.5],[1,0.5]];portConstraint=eastwest;rotatable=0;whiteSpace=wrap;html=1;" parent="mWx5hDMgx2Dgxl-d4mNW-39" vertex="1">
          <mxGeometry y="30" width="260" height="30" as="geometry" />
        </mxCell>
        <mxCell id="mWx5hDMgx2Dgxl-d4mNW-43" value="&lt;span style=&quot;text-align: center;&quot;&gt;Organization can adjust player balance&lt;/span&gt;" style="text;strokeColor=none;fillColor=none;align=left;verticalAlign=middle;spacingLeft=4;spacingRight=4;overflow=hidden;points=[[0,0.5],[1,0.5]];portConstraint=eastwest;rotatable=0;whiteSpace=wrap;html=1;" parent="mWx5hDMgx2Dgxl-d4mNW-39" vertex="1">
          <mxGeometry y="60" width="260" height="30" as="geometry" />
        </mxCell>
        <mxCell id="uEb2hPy4MsJ5k8sXh7UQ-13" value="&lt;span style=&quot;text-align: center;&quot;&gt;Organization can&amp;nbsp;&lt;/span&gt;&lt;span style=&quot;text-align: center;&quot;&gt;CRU &amp;amp; Suspend&amp;nbsp;players&lt;/span&gt;" style="text;strokeColor=none;fillColor=none;align=left;verticalAlign=middle;spacingLeft=4;spacingRight=4;overflow=hidden;points=[[0,0.5],[1,0.5]];portConstraint=eastwest;rotatable=0;whiteSpace=wrap;html=1;" parent="mWx5hDMgx2Dgxl-d4mNW-39" vertex="1">
          <mxGeometry y="90" width="260" height="30" as="geometry" />
        </mxCell>
        <mxCell id="mWx5hDMgx2Dgxl-d4mNW-58" value="Need" style="swimlane;fontStyle=0;childLayout=stackLayout;horizontal=1;startSize=30;horizontalStack=0;resizeParent=1;resizeParentMax=0;resizeLast=0;collapsible=1;marginBottom=0;whiteSpace=wrap;html=1;" parent="1" vertex="1">
          <mxGeometry x="970" y="550" width="260" height="90" as="geometry" />
        </mxCell>
        <mxCell id="mWx5hDMgx2Dgxl-d4mNW-59" value="&lt;span style=&quot;text-align: center;&quot;&gt;Connect register code with h5&lt;/span&gt;" style="text;strokeColor=none;fillColor=none;align=left;verticalAlign=middle;spacingLeft=4;spacingRight=4;overflow=hidden;points=[[0,0.5],[1,0.5]];portConstraint=eastwest;rotatable=0;whiteSpace=wrap;html=1;" parent="mWx5hDMgx2Dgxl-d4mNW-58" vertex="1">
          <mxGeometry y="30" width="260" height="30" as="geometry" />
        </mxCell>
        <mxCell id="mWx5hDMgx2Dgxl-d4mNW-75" value="&lt;div style=&quot;text-align: center;&quot;&gt;&lt;span style=&quot;background-color: initial;&quot;&gt;Player will have wallet&lt;/span&gt;&lt;/div&gt;" style="text;strokeColor=none;fillColor=none;align=left;verticalAlign=middle;spacingLeft=4;spacingRight=4;overflow=hidden;points=[[0,0.5],[1,0.5]];portConstraint=eastwest;rotatable=0;whiteSpace=wrap;html=1;" parent="mWx5hDMgx2Dgxl-d4mNW-58" vertex="1">
          <mxGeometry y="60" width="260" height="30" as="geometry" />
        </mxCell>
        <mxCell id="mWx5hDMgx2Dgxl-d4mNW-72" value="Need" style="swimlane;fontStyle=0;childLayout=stackLayout;horizontal=1;startSize=30;horizontalStack=0;resizeParent=1;resizeParentMax=0;resizeLast=0;collapsible=1;marginBottom=0;whiteSpace=wrap;html=1;" parent="1" vertex="1">
          <mxGeometry x="970" y="269" width="260" height="90" as="geometry" />
        </mxCell>
        <mxCell id="mWx5hDMgx2Dgxl-d4mNW-73" value="&lt;div style=&quot;text-align: center;&quot;&gt;&lt;span style=&quot;background-color: initial;&quot;&gt;Organization&#39;s admin can login backoffice&lt;/span&gt;&lt;/div&gt;" style="text;strokeColor=none;fillColor=none;align=left;verticalAlign=middle;spacingLeft=4;spacingRight=4;overflow=hidden;points=[[0,0.5],[1,0.5]];portConstraint=eastwest;rotatable=0;whiteSpace=wrap;html=1;" parent="mWx5hDMgx2Dgxl-d4mNW-72" vertex="1">
          <mxGeometry y="30" width="260" height="20" as="geometry" />
        </mxCell>
        <mxCell id="SMwx6Tc3QH3V0_roN2wU-5" value="&lt;div style=&quot;text-align: center;&quot;&gt;&lt;span style=&quot;background-color: initial;&quot;&gt;Organization&#39;s accounting can login backoffice&lt;/span&gt;&lt;/div&gt;" style="text;strokeColor=none;fillColor=none;align=left;verticalAlign=middle;spacingLeft=4;spacingRight=4;overflow=hidden;points=[[0,0.5],[1,0.5]];portConstraint=eastwest;rotatable=0;whiteSpace=wrap;html=1;" parent="mWx5hDMgx2Dgxl-d4mNW-72" vertex="1">
          <mxGeometry y="50" width="260" height="20" as="geometry" />
        </mxCell>
        <mxCell id="SMwx6Tc3QH3V0_roN2wU-6" value="&lt;div style=&quot;text-align: center;&quot;&gt;&lt;span style=&quot;background-color: initial;&quot;&gt;Organization&#39;s CS can login backoffice&lt;/span&gt;&lt;/div&gt;" style="text;strokeColor=none;fillColor=none;align=left;verticalAlign=middle;spacingLeft=4;spacingRight=4;overflow=hidden;points=[[0,0.5],[1,0.5]];portConstraint=eastwest;rotatable=0;whiteSpace=wrap;html=1;" parent="mWx5hDMgx2Dgxl-d4mNW-72" vertex="1">
          <mxGeometry y="70" width="260" height="20" as="geometry" />
        </mxCell>
        <mxCell id="mWx5hDMgx2Dgxl-d4mNW-80" value="" style="group;flipV=1;" parent="1" vertex="1" connectable="0">
          <mxGeometry x="20" y="110" width="740" height="120" as="geometry" />
        </mxCell>
        <mxCell id="mWx5hDMgx2Dgxl-d4mNW-22" value="Co Create&lt;br&gt;Organization" style="shape=document;whiteSpace=wrap;html=1;boundedLbl=1;size=0.16666666666666666;" parent="mWx5hDMgx2Dgxl-d4mNW-80" vertex="1">
          <mxGeometry width="120" height="120" as="geometry" />
        </mxCell>
        <mxCell id="mWx5hDMgx2Dgxl-d4mNW-79" value="" style="group" parent="mWx5hDMgx2Dgxl-d4mNW-80" vertex="1" connectable="0">
          <mxGeometry x="180" y="20" width="560" height="80" as="geometry" />
        </mxCell>
        <mxCell id="mWx5hDMgx2Dgxl-d4mNW-11" value="Co.AuthZ" style="shape=hexagon;perimeter=hexagonPerimeter2;whiteSpace=wrap;html=1;fixedSize=1;size=20;fillColor=#dae8fc;strokeColor=#6c8ebf;" parent="mWx5hDMgx2Dgxl-d4mNW-79" vertex="1">
          <mxGeometry width="90" height="80" as="geometry" />
        </mxCell>
        <mxCell id="mWx5hDMgx2Dgxl-d4mNW-12" value="Co.F2E" style="shape=hexagon;perimeter=hexagonPerimeter2;whiteSpace=wrap;html=1;fixedSize=1;size=20;fillColor=#e1d5e7;strokeColor=#9673a6;" parent="mWx5hDMgx2Dgxl-d4mNW-79" vertex="1">
          <mxGeometry x="360" width="90" height="80" as="geometry" />
        </mxCell>
        <mxCell id="mWx5hDMgx2Dgxl-d4mNW-13" value="Bo.Company" style="shape=hexagon;perimeter=hexagonPerimeter2;whiteSpace=wrap;html=1;fixedSize=1;size=20;fillColor=#dae8fc;strokeColor=#6c8ebf;" parent="mWx5hDMgx2Dgxl-d4mNW-79" vertex="1">
          <mxGeometry x="118" width="90" height="80" as="geometry" />
        </mxCell>
        <mxCell id="mWx5hDMgx2Dgxl-d4mNW-14" value="Bo.Roles" style="shape=hexagon;perimeter=hexagonPerimeter2;whiteSpace=wrap;html=1;fixedSize=1;size=20;fillColor=#dae8fc;strokeColor=#6c8ebf;" parent="mWx5hDMgx2Dgxl-d4mNW-79" vertex="1">
          <mxGeometry x="235" width="90" height="80" as="geometry" />
        </mxCell>
        <mxCell id="mWx5hDMgx2Dgxl-d4mNW-81" value="" style="group;flipV=1;" parent="1" vertex="1" connectable="0">
          <mxGeometry x="20" y="269" width="505" height="130" as="geometry" />
        </mxCell>
        <mxCell id="mWx5hDMgx2Dgxl-d4mNW-24" value="Check&lt;div&gt;Organization&lt;br&gt;Login&lt;/div&gt;" style="shape=tape;whiteSpace=wrap;html=1;size=0.2;" parent="mWx5hDMgx2Dgxl-d4mNW-81" vertex="1">
          <mxGeometry width="120" height="130" as="geometry" />
        </mxCell>
        <mxCell id="mWx5hDMgx2Dgxl-d4mNW-76" value="" style="group" parent="mWx5hDMgx2Dgxl-d4mNW-81" vertex="1" connectable="0">
          <mxGeometry x="180" y="25" width="325" height="80" as="geometry" />
        </mxCell>
        <mxCell id="mWx5hDMgx2Dgxl-d4mNW-50" value="Co.F2E" style="shape=hexagon;perimeter=hexagonPerimeter2;whiteSpace=wrap;html=1;fixedSize=1;size=20;fillColor=#e1d5e7;strokeColor=#9673a6;" parent="mWx5hDMgx2Dgxl-d4mNW-76" vertex="1">
          <mxGeometry x="118" width="90" height="80" as="geometry" />
        </mxCell>
        <mxCell id="mWx5hDMgx2Dgxl-d4mNW-51" value="Co.AuthZ" style="shape=hexagon;perimeter=hexagonPerimeter2;whiteSpace=wrap;html=1;fixedSize=1;size=20;fillColor=#dae8fc;strokeColor=#6c8ebf;" parent="mWx5hDMgx2Dgxl-d4mNW-76" vertex="1">
          <mxGeometry width="90" height="80" as="geometry" />
        </mxCell>
        <mxCell id="mWx5hDMgx2Dgxl-d4mNW-82" value="" style="group;flipV=1;" parent="1" vertex="1" connectable="0">
          <mxGeometry x="20" y="550" width="860" height="130" as="geometry" />
        </mxCell>
        <mxCell id="mWx5hDMgx2Dgxl-d4mNW-52" value="Player can register&lt;br&gt;under SMA&lt;br&gt;with wallet" style="shape=tape;whiteSpace=wrap;html=1;size=0.2;" parent="mWx5hDMgx2Dgxl-d4mNW-82" vertex="1">
          <mxGeometry width="120" height="130" as="geometry" />
        </mxCell>
        <mxCell id="mWx5hDMgx2Dgxl-d4mNW-77" value="" style="group" parent="mWx5hDMgx2Dgxl-d4mNW-82" vertex="1" connectable="0">
          <mxGeometry x="180" y="25" width="680" height="80" as="geometry" />
        </mxCell>
        <mxCell id="mWx5hDMgx2Dgxl-d4mNW-55" value="Co.F2E" style="shape=hexagon;perimeter=hexagonPerimeter2;whiteSpace=wrap;html=1;fixedSize=1;size=20;fillColor=#e1d5e7;strokeColor=#9673a6;" parent="mWx5hDMgx2Dgxl-d4mNW-77" vertex="1">
          <mxGeometry x="480" width="90" height="80" as="geometry" />
        </mxCell>
        <mxCell id="mWx5hDMgx2Dgxl-d4mNW-64" value="Jili.F2E" style="shape=hexagon;perimeter=hexagonPerimeter2;whiteSpace=wrap;html=1;fixedSize=1;size=20;fillColor=#e1d5e7;strokeColor=#9673a6;" parent="mWx5hDMgx2Dgxl-d4mNW-77" vertex="1">
          <mxGeometry x="590" width="90" height="80" as="geometry" />
        </mxCell>
        <mxCell id="mWx5hDMgx2Dgxl-d4mNW-65" value="App.AuthZ" style="shape=hexagon;perimeter=hexagonPerimeter2;whiteSpace=wrap;html=1;fixedSize=1;size=20;fillColor=#dae8fc;strokeColor=#6c8ebf;" parent="mWx5hDMgx2Dgxl-d4mNW-77" vertex="1">
          <mxGeometry width="90" height="80" as="geometry" />
        </mxCell>
        <mxCell id="mWx5hDMgx2Dgxl-d4mNW-66" value="Bo.player" style="shape=hexagon;perimeter=hexagonPerimeter2;whiteSpace=wrap;html=1;fixedSize=1;size=20;fillColor=#dae8fc;strokeColor=#6c8ebf;" parent="mWx5hDMgx2Dgxl-d4mNW-77" vertex="1">
          <mxGeometry x="118" width="90" height="80" as="geometry" />
        </mxCell>
        <mxCell id="sMFta4gp6KuNshNMrOfS-21" value="Wallet" style="shape=hexagon;perimeter=hexagonPerimeter2;whiteSpace=wrap;html=1;fixedSize=1;size=20;fillColor=#dae8fc;strokeColor=#6c8ebf;" parent="mWx5hDMgx2Dgxl-d4mNW-77" vertex="1">
          <mxGeometry x="240" width="90" height="80" as="geometry" />
        </mxCell>
        <mxCell id="sMFta4gp6KuNshNMrOfS-22" value="Wallet&lt;div&gt;Snapshot&lt;/div&gt;" style="shape=hexagon;perimeter=hexagonPerimeter2;whiteSpace=wrap;html=1;fixedSize=1;size=20;fillColor=#dae8fc;strokeColor=#6c8ebf;" parent="mWx5hDMgx2Dgxl-d4mNW-77" vertex="1">
          <mxGeometry x="360" width="90" height="80" as="geometry" />
        </mxCell>
        <mxCell id="mWx5hDMgx2Dgxl-d4mNW-83" value="" style="group;flipV=1;" parent="1" vertex="1" connectable="0">
          <mxGeometry x="20" y="840" width="740" height="130" as="geometry" />
        </mxCell>
        <mxCell id="mWx5hDMgx2Dgxl-d4mNW-38" value="Co&lt;br&gt;Reports" style="shape=tape;whiteSpace=wrap;html=1;size=0.2;" parent="mWx5hDMgx2Dgxl-d4mNW-83" vertex="1">
          <mxGeometry width="120" height="130" as="geometry" />
        </mxCell>
        <mxCell id="mWx5hDMgx2Dgxl-d4mNW-78" value="" style="group" parent="mWx5hDMgx2Dgxl-d4mNW-83" vertex="1" connectable="0">
          <mxGeometry x="180" y="25" width="560" height="80" as="geometry" />
        </mxCell>
        <mxCell id="mWx5hDMgx2Dgxl-d4mNW-29" value="Co.B2B2C.&lt;div&gt;AuthZ&lt;/div&gt;" style="shape=hexagon;perimeter=hexagonPerimeter2;whiteSpace=wrap;html=1;fixedSize=1;size=20;fillColor=#dae8fc;strokeColor=#6c8ebf;" parent="mWx5hDMgx2Dgxl-d4mNW-78" vertex="1">
          <mxGeometry width="90" height="80" as="geometry" />
        </mxCell>
        <mxCell id="mWx5hDMgx2Dgxl-d4mNW-30" value="Bo.Report" style="shape=hexagon;perimeter=hexagonPerimeter2;whiteSpace=wrap;html=1;fixedSize=1;size=20;fillColor=#dae8fc;strokeColor=#6c8ebf;" parent="mWx5hDMgx2Dgxl-d4mNW-78" vertex="1">
          <mxGeometry x="118" width="90" height="80" as="geometry" />
        </mxCell>
        <mxCell id="mWx5hDMgx2Dgxl-d4mNW-47" value="Co.F2E" style="shape=hexagon;perimeter=hexagonPerimeter2;whiteSpace=wrap;html=1;fixedSize=1;size=20;fillColor=#e1d5e7;strokeColor=#9673a6;" parent="mWx5hDMgx2Dgxl-d4mNW-78" vertex="1">
          <mxGeometry x="470" width="90" height="80" as="geometry" />
        </mxCell>
        <mxCell id="mWx5hDMgx2Dgxl-d4mNW-48" value="Bo.ETL" style="shape=hexagon;perimeter=hexagonPerimeter2;whiteSpace=wrap;html=1;fixedSize=1;size=20;fillColor=#dae8fc;strokeColor=#6c8ebf;" parent="mWx5hDMgx2Dgxl-d4mNW-78" vertex="1">
          <mxGeometry x="353" width="90" height="80" as="geometry" />
        </mxCell>
        <mxCell id="mWx5hDMgx2Dgxl-d4mNW-49" value="Bo.Report.&lt;br&gt;Receiver" style="shape=hexagon;perimeter=hexagonPerimeter2;whiteSpace=wrap;html=1;fixedSize=1;size=20;fillColor=#dae8fc;strokeColor=#6c8ebf;" parent="mWx5hDMgx2Dgxl-d4mNW-78" vertex="1">
          <mxGeometry x="235" width="90" height="80" as="geometry" />
        </mxCell>
        <mxCell id="mWx5hDMgx2Dgxl-d4mNW-97" value="" style="group;flipV=1;" parent="1" vertex="1" connectable="0">
          <mxGeometry x="20" y="1160" width="740" height="130" as="geometry" />
        </mxCell>
        <mxCell id="mWx5hDMgx2Dgxl-d4mNW-98" value="CRM&amp;nbsp;" style="shape=tape;whiteSpace=wrap;html=1;size=0.2;" parent="mWx5hDMgx2Dgxl-d4mNW-97" vertex="1">
          <mxGeometry width="120" height="130" as="geometry" />
        </mxCell>
        <mxCell id="mWx5hDMgx2Dgxl-d4mNW-99" value="" style="group" parent="mWx5hDMgx2Dgxl-d4mNW-97" vertex="1" connectable="0">
          <mxGeometry x="180" y="25" width="560" height="80" as="geometry" />
        </mxCell>
        <mxCell id="mWx5hDMgx2Dgxl-d4mNW-100" value="Co.AuthZ" style="shape=hexagon;perimeter=hexagonPerimeter2;whiteSpace=wrap;html=1;fixedSize=1;size=20;fillColor=#dae8fc;strokeColor=#6c8ebf;" parent="mWx5hDMgx2Dgxl-d4mNW-99" vertex="1">
          <mxGeometry width="90" height="80" as="geometry" />
        </mxCell>
        <mxCell id="mWx5hDMgx2Dgxl-d4mNW-101" value="Bo.CRM" style="shape=hexagon;perimeter=hexagonPerimeter2;whiteSpace=wrap;html=1;fixedSize=1;size=20;fillColor=#dae8fc;strokeColor=#6c8ebf;" parent="mWx5hDMgx2Dgxl-d4mNW-99" vertex="1">
          <mxGeometry x="118" width="90" height="80" as="geometry" />
        </mxCell>
        <mxCell id="mWx5hDMgx2Dgxl-d4mNW-102" value="Co.F2E" style="shape=hexagon;perimeter=hexagonPerimeter2;whiteSpace=wrap;html=1;fixedSize=1;size=20;fillColor=#e1d5e7;strokeColor=#9673a6;" parent="mWx5hDMgx2Dgxl-d4mNW-99" vertex="1">
          <mxGeometry x="240" width="90" height="80" as="geometry" />
        </mxCell>
        <mxCell id="uEb2hPy4MsJ5k8sXh7UQ-1" value="" style="group;flipV=1;" parent="1" vertex="1" connectable="0">
          <mxGeometry x="20" y="700" width="860" height="130" as="geometry" />
        </mxCell>
        <mxCell id="uEb2hPy4MsJ5k8sXh7UQ-2" value="Organization can manage player" style="shape=tape;whiteSpace=wrap;html=1;size=0.2;" parent="uEb2hPy4MsJ5k8sXh7UQ-1" vertex="1">
          <mxGeometry width="120" height="130" as="geometry" />
        </mxCell>
        <mxCell id="uEb2hPy4MsJ5k8sXh7UQ-3" value="" style="group" parent="uEb2hPy4MsJ5k8sXh7UQ-1" vertex="1" connectable="0">
          <mxGeometry x="180" y="25" width="680" height="80" as="geometry" />
        </mxCell>
        <mxCell id="uEb2hPy4MsJ5k8sXh7UQ-4" value="Wallet" style="shape=hexagon;perimeter=hexagonPerimeter2;whiteSpace=wrap;html=1;fixedSize=1;size=20;fillColor=#dae8fc;strokeColor=#6c8ebf;" parent="uEb2hPy4MsJ5k8sXh7UQ-3" vertex="1">
          <mxGeometry x="240" width="90" height="80" as="geometry" />
        </mxCell>
        <mxCell id="uEb2hPy4MsJ5k8sXh7UQ-5" value="Bo.Player" style="shape=hexagon;perimeter=hexagonPerimeter2;whiteSpace=wrap;html=1;fixedSize=1;size=20;fillColor=#dae8fc;strokeColor=#6c8ebf;" parent="uEb2hPy4MsJ5k8sXh7UQ-3" vertex="1">
          <mxGeometry x="118" width="90" height="80" as="geometry" />
        </mxCell>
        <mxCell id="uEb2hPy4MsJ5k8sXh7UQ-6" value="Co.AuthZ" style="shape=hexagon;perimeter=hexagonPerimeter2;whiteSpace=wrap;html=1;fixedSize=1;size=20;fillColor=#dae8fc;strokeColor=#6c8ebf;" parent="uEb2hPy4MsJ5k8sXh7UQ-3" vertex="1">
          <mxGeometry width="90" height="80" as="geometry" />
        </mxCell>
        <mxCell id="uEb2hPy4MsJ5k8sXh7UQ-14" value="Bo.F2E" style="shape=hexagon;perimeter=hexagonPerimeter2;whiteSpace=wrap;html=1;fixedSize=1;size=20;fillColor=#e1d5e7;strokeColor=#9673a6;" parent="uEb2hPy4MsJ5k8sXh7UQ-3" vertex="1">
          <mxGeometry x="360" width="90" height="80" as="geometry" />
        </mxCell>
        <mxCell id="sMFta4gp6KuNshNMrOfS-7" value="" style="group;flipV=1;" parent="1" vertex="1" connectable="0">
          <mxGeometry x="20" y="410" width="860" height="130" as="geometry" />
        </mxCell>
        <mxCell id="sMFta4gp6KuNshNMrOfS-8" value="&lt;div&gt;Organization can&lt;/div&gt;&lt;div&gt;create SMA&lt;br&gt;&lt;/div&gt;" style="shape=tape;whiteSpace=wrap;html=1;size=0.2;" parent="sMFta4gp6KuNshNMrOfS-7" vertex="1">
          <mxGeometry width="120" height="130" as="geometry" />
        </mxCell>
        <mxCell id="sMFta4gp6KuNshNMrOfS-9" value="" style="group" parent="sMFta4gp6KuNshNMrOfS-7" vertex="1" connectable="0">
          <mxGeometry x="180" y="25" width="680" height="80" as="geometry" />
        </mxCell>
        <mxCell id="sMFta4gp6KuNshNMrOfS-11" value="Bo.Agent" style="shape=hexagon;perimeter=hexagonPerimeter2;whiteSpace=wrap;html=1;fixedSize=1;size=20;fillColor=#dae8fc;strokeColor=#6c8ebf;" parent="sMFta4gp6KuNshNMrOfS-9" vertex="1">
          <mxGeometry x="118" width="90" height="80" as="geometry" />
        </mxCell>
        <mxCell id="sMFta4gp6KuNshNMrOfS-12" value="Co.AuthZ" style="shape=hexagon;perimeter=hexagonPerimeter2;whiteSpace=wrap;html=1;fixedSize=1;size=20;fillColor=#dae8fc;strokeColor=#6c8ebf;" parent="sMFta4gp6KuNshNMrOfS-9" vertex="1">
          <mxGeometry width="90" height="80" as="geometry" />
        </mxCell>
        <mxCell id="sMFta4gp6KuNshNMrOfS-14" value="Co.F2E" style="shape=hexagon;perimeter=hexagonPerimeter2;whiteSpace=wrap;html=1;fixedSize=1;size=20;fillColor=#e1d5e7;strokeColor=#9673a6;" parent="sMFta4gp6KuNshNMrOfS-9" vertex="1">
          <mxGeometry x="235" width="90" height="80" as="geometry" />
        </mxCell>
        <mxCell id="sMFta4gp6KuNshNMrOfS-19" value="Need" style="swimlane;fontStyle=0;childLayout=stackLayout;horizontal=1;startSize=30;horizontalStack=0;resizeParent=1;resizeParentMax=0;resizeLast=0;collapsible=1;marginBottom=0;whiteSpace=wrap;html=1;" parent="1" vertex="1">
          <mxGeometry x="970" y="399" width="260" height="90" as="geometry" />
        </mxCell>
        <mxCell id="sMFta4gp6KuNshNMrOfS-20" value="&lt;div style=&quot;text-align: center;&quot;&gt;&lt;span style=&quot;background-color: initial;&quot;&gt;Organization can create SMA in backoffice&lt;/span&gt;&lt;/div&gt;" style="text;strokeColor=none;fillColor=none;align=left;verticalAlign=middle;spacingLeft=4;spacingRight=4;overflow=hidden;points=[[0,0.5],[1,0.5]];portConstraint=eastwest;rotatable=0;whiteSpace=wrap;html=1;" parent="sMFta4gp6KuNshNMrOfS-19" vertex="1">
          <mxGeometry y="30" width="260" height="20" as="geometry" />
        </mxCell>
        <mxCell id="SMwx6Tc3QH3V0_roN2wU-1" value="&lt;span style=&quot;text-align: center;&quot;&gt;SMA&amp;nbsp;&lt;/span&gt;&lt;span style=&quot;text-align: center;&quot;&gt;will choose points or cash by currency&lt;/span&gt;" style="text;strokeColor=none;fillColor=none;align=left;verticalAlign=middle;spacingLeft=4;spacingRight=4;overflow=hidden;points=[[0,0.5],[1,0.5]];portConstraint=eastwest;rotatable=0;whiteSpace=wrap;html=1;" parent="sMFta4gp6KuNshNMrOfS-19" vertex="1">
          <mxGeometry y="50" width="260" height="40" as="geometry" />
        </mxCell>
        <mxCell id="gWZBpWI3eAZiVAebvmAL-1" value="" style="group;flipV=1;" parent="1" vertex="1" connectable="0">
          <mxGeometry x="20" y="1000" width="860" height="130" as="geometry" />
        </mxCell>
        <mxCell id="gWZBpWI3eAZiVAebvmAL-2" value="Organization can manage withdraw &amp;amp; deposit" style="shape=tape;whiteSpace=wrap;html=1;size=0.2;" parent="gWZBpWI3eAZiVAebvmAL-1" vertex="1">
          <mxGeometry width="120" height="130" as="geometry" />
        </mxCell>
        <mxCell id="gWZBpWI3eAZiVAebvmAL-3" value="" style="group" parent="gWZBpWI3eAZiVAebvmAL-1" vertex="1" connectable="0">
          <mxGeometry x="180" y="25" width="680" height="80" as="geometry" />
        </mxCell>
        <mxCell id="gWZBpWI3eAZiVAebvmAL-4" value="Wallet" style="shape=hexagon;perimeter=hexagonPerimeter2;whiteSpace=wrap;html=1;fixedSize=1;size=20;fillColor=#dae8fc;strokeColor=#6c8ebf;" parent="gWZBpWI3eAZiVAebvmAL-3" vertex="1">
          <mxGeometry x="240" width="90" height="80" as="geometry" />
        </mxCell>
        <mxCell id="gWZBpWI3eAZiVAebvmAL-5" value="Counter" style="shape=hexagon;perimeter=hexagonPerimeter2;whiteSpace=wrap;html=1;fixedSize=1;size=20;fillColor=#dae8fc;strokeColor=#6c8ebf;" parent="gWZBpWI3eAZiVAebvmAL-3" vertex="1">
          <mxGeometry x="118" width="90" height="80" as="geometry" />
        </mxCell>
        <mxCell id="gWZBpWI3eAZiVAebvmAL-6" value="Co.AuthZ" style="shape=hexagon;perimeter=hexagonPerimeter2;whiteSpace=wrap;html=1;fixedSize=1;size=20;fillColor=#dae8fc;strokeColor=#6c8ebf;" parent="gWZBpWI3eAZiVAebvmAL-3" vertex="1">
          <mxGeometry width="90" height="80" as="geometry" />
        </mxCell>
        <mxCell id="gWZBpWI3eAZiVAebvmAL-8" value="Payment.&lt;div&gt;Settings&lt;/div&gt;" style="shape=hexagon;perimeter=hexagonPerimeter2;whiteSpace=wrap;html=1;fixedSize=1;size=20;fillColor=#dae8fc;strokeColor=#6c8ebf;" parent="gWZBpWI3eAZiVAebvmAL-3" vertex="1">
          <mxGeometry x="360" width="90" height="80" as="geometry" />
        </mxCell>
        <mxCell id="gWZBpWI3eAZiVAebvmAL-10" value="Payment.&lt;div&gt;Google&lt;/div&gt;" style="shape=hexagon;perimeter=hexagonPerimeter2;whiteSpace=wrap;html=1;fixedSize=1;size=20;fillColor=#dae8fc;strokeColor=#6c8ebf;" parent="gWZBpWI3eAZiVAebvmAL-3" vertex="1">
          <mxGeometry x="470" width="90" height="80" as="geometry" />
        </mxCell>
        <mxCell id="gWZBpWI3eAZiVAebvmAL-11" value="Payment.&lt;div&gt;Apple&lt;/div&gt;" style="shape=hexagon;perimeter=hexagonPerimeter2;whiteSpace=wrap;html=1;fixedSize=1;size=20;fillColor=#dae8fc;strokeColor=#6c8ebf;" parent="gWZBpWI3eAZiVAebvmAL-3" vertex="1">
          <mxGeometry x="580" width="90" height="80" as="geometry" />
        </mxCell>
        <mxCell id="gWZBpWI3eAZiVAebvmAL-7" value="Co.F2E" style="shape=hexagon;perimeter=hexagonPerimeter2;whiteSpace=wrap;html=1;fixedSize=1;size=20;fillColor=#e1d5e7;strokeColor=#9673a6;" parent="1" vertex="1">
          <mxGeometry x="890" y="1025" width="90" height="80" as="geometry" />
        </mxCell>
        <mxCell id="gWZBpWI3eAZiVAebvmAL-12" value="Need" style="swimlane;fontStyle=0;childLayout=stackLayout;horizontal=1;startSize=30;horizontalStack=0;resizeParent=1;resizeParentMax=0;resizeLast=0;collapsible=1;marginBottom=0;whiteSpace=wrap;html=1;" parent="1" vertex="1">
          <mxGeometry x="970" y="860" width="260" height="90" as="geometry" />
        </mxCell>
        <mxCell id="gWZBpWI3eAZiVAebvmAL-13" value="&lt;span style=&quot;text-align: center;&quot;&gt;Report can be devided by organazation&lt;/span&gt;" style="text;strokeColor=none;fillColor=none;align=left;verticalAlign=middle;spacingLeft=4;spacingRight=4;overflow=hidden;points=[[0,0.5],[1,0.5]];portConstraint=eastwest;rotatable=0;whiteSpace=wrap;html=1;" parent="gWZBpWI3eAZiVAebvmAL-12" vertex="1">
          <mxGeometry y="30" width="260" height="30" as="geometry" />
        </mxCell>
        <mxCell id="gWZBpWI3eAZiVAebvmAL-14" value="&lt;span style=&quot;text-align: center;&quot;&gt;Organization will see only their report&lt;/span&gt;" style="text;strokeColor=none;fillColor=none;align=left;verticalAlign=middle;spacingLeft=4;spacingRight=4;overflow=hidden;points=[[0,0.5],[1,0.5]];portConstraint=eastwest;rotatable=0;whiteSpace=wrap;html=1;" parent="gWZBpWI3eAZiVAebvmAL-12" vertex="1">
          <mxGeometry y="60" width="260" height="30" as="geometry" />
        </mxCell>
        <mxCell id="gWZBpWI3eAZiVAebvmAL-15" value="Need" style="swimlane;fontStyle=0;childLayout=stackLayout;horizontal=1;startSize=30;horizontalStack=0;resizeParent=1;resizeParentMax=0;resizeLast=0;collapsible=1;marginBottom=0;whiteSpace=wrap;html=1;" parent="1" vertex="1">
          <mxGeometry x="990" y="959" width="260" height="210" as="geometry" />
        </mxCell>
        <mxCell id="n78u6lZb8ZKfl6BLFPyP-1" value="&lt;span style=&quot;text-align: center;&quot;&gt;Organiztions will have their own 3rd party wallet.&lt;/span&gt;" style="text;strokeColor=none;fillColor=none;align=left;verticalAlign=middle;spacingLeft=4;spacingRight=4;overflow=hidden;points=[[0,0.5],[1,0.5]];portConstraint=eastwest;rotatable=0;whiteSpace=wrap;html=1;" vertex="1" parent="gWZBpWI3eAZiVAebvmAL-15">
          <mxGeometry y="30" width="260" height="30" as="geometry" />
        </mxCell>
        <mxCell id="n78u6lZb8ZKfl6BLFPyP-2" value="&lt;span style=&quot;text-align: center;&quot;&gt;Funky can select payment for organization.&lt;/span&gt;" style="text;strokeColor=none;fillColor=none;align=left;verticalAlign=middle;spacingLeft=4;spacingRight=4;overflow=hidden;points=[[0,0.5],[1,0.5]];portConstraint=eastwest;rotatable=0;whiteSpace=wrap;html=1;" vertex="1" parent="gWZBpWI3eAZiVAebvmAL-15">
          <mxGeometry y="60" width="260" height="30" as="geometry" />
        </mxCell>
        <mxCell id="gWZBpWI3eAZiVAebvmAL-18" value="&lt;span style=&quot;text-align: center;&quot;&gt;Player can deposit with apple&lt;/span&gt;" style="text;strokeColor=none;fillColor=none;align=left;verticalAlign=middle;spacingLeft=4;spacingRight=4;overflow=hidden;points=[[0,0.5],[1,0.5]];portConstraint=eastwest;rotatable=0;whiteSpace=wrap;html=1;" parent="gWZBpWI3eAZiVAebvmAL-15" vertex="1">
          <mxGeometry y="90" width="260" height="30" as="geometry" />
        </mxCell>
        <mxCell id="gWZBpWI3eAZiVAebvmAL-17" value="&lt;span style=&quot;text-align: center;&quot;&gt;Player can deposit with google&amp;nbsp;&lt;/span&gt;" style="text;strokeColor=none;fillColor=none;align=left;verticalAlign=middle;spacingLeft=4;spacingRight=4;overflow=hidden;points=[[0,0.5],[1,0.5]];portConstraint=eastwest;rotatable=0;whiteSpace=wrap;html=1;" parent="gWZBpWI3eAZiVAebvmAL-15" vertex="1">
          <mxGeometry y="120" width="260" height="30" as="geometry" />
        </mxCell>
        <mxCell id="gWZBpWI3eAZiVAebvmAL-16" value="&lt;span style=&quot;text-align: center;&quot;&gt;Report can see player deposit&lt;/span&gt;" style="text;strokeColor=none;fillColor=none;align=left;verticalAlign=middle;spacingLeft=4;spacingRight=4;overflow=hidden;points=[[0,0.5],[1,0.5]];portConstraint=eastwest;rotatable=0;whiteSpace=wrap;html=1;" parent="gWZBpWI3eAZiVAebvmAL-15" vertex="1">
          <mxGeometry y="150" width="260" height="30" as="geometry" />
        </mxCell>
        <mxCell id="gWZBpWI3eAZiVAebvmAL-19" value="&lt;span style=&quot;text-align: center;&quot;&gt;Report can see transaction&lt;/span&gt;" style="text;strokeColor=none;fillColor=none;align=left;verticalAlign=middle;spacingLeft=4;spacingRight=4;overflow=hidden;points=[[0,0.5],[1,0.5]];portConstraint=eastwest;rotatable=0;whiteSpace=wrap;html=1;" parent="gWZBpWI3eAZiVAebvmAL-15" vertex="1">
          <mxGeometry y="180" width="260" height="30" as="geometry" />
        </mxCell>
        <mxCell id="gWZBpWI3eAZiVAebvmAL-20" value="Need" style="swimlane;fontStyle=0;childLayout=stackLayout;horizontal=1;startSize=30;horizontalStack=0;resizeParent=1;resizeParentMax=0;resizeLast=0;collapsible=1;marginBottom=0;whiteSpace=wrap;html=1;" parent="1" vertex="1">
          <mxGeometry x="990" y="1195" width="260" height="120" as="geometry" />
        </mxCell>
        <mxCell id="mWx5hDMgx2Dgxl-d4mNW-25" value="&lt;span style=&quot;text-align: center;&quot;&gt;Company can CRU&amp;nbsp;&lt;/span&gt;organization" style="text;strokeColor=none;fillColor=none;align=left;verticalAlign=middle;spacingLeft=4;spacingRight=4;overflow=hidden;points=[[0,0.5],[1,0.5]];portConstraint=eastwest;rotatable=0;whiteSpace=wrap;html=1;" parent="gWZBpWI3eAZiVAebvmAL-20" vertex="1">
          <mxGeometry y="30" width="260" height="30" as="geometry" />
        </mxCell>
        <mxCell id="gWZBpWI3eAZiVAebvmAL-21" value="&lt;span style=&quot;text-align: center;&quot;&gt;Organization&#39;s&amp;nbsp;&lt;/span&gt;&lt;span style=&quot;text-align: center;&quot;&gt;CRM setting&amp;nbsp;&lt;/span&gt;&lt;span style=&quot;text-align: center;&quot;&gt;can choose to be on or off&amp;nbsp;&lt;/span&gt;&lt;span style=&quot;text-align: center;&quot;&gt;, either in ASI or BSI&lt;/span&gt;" style="text;strokeColor=none;fillColor=none;align=left;verticalAlign=middle;spacingLeft=4;spacingRight=4;overflow=hidden;points=[[0,0.5],[1,0.5]];portConstraint=eastwest;rotatable=0;whiteSpace=wrap;html=1;" parent="gWZBpWI3eAZiVAebvmAL-20" vertex="1">
          <mxGeometry y="60" width="260" height="30" as="geometry" />
        </mxCell>
        <mxCell id="SMwx6Tc3QH3V0_roN2wU-7" value="&lt;span style=&quot;text-align: center;&quot;&gt;Organization will have theme&lt;/span&gt;" style="text;strokeColor=none;fillColor=none;align=left;verticalAlign=middle;spacingLeft=4;spacingRight=4;overflow=hidden;points=[[0,0.5],[1,0.5]];portConstraint=eastwest;rotatable=0;whiteSpace=wrap;html=1;" parent="gWZBpWI3eAZiVAebvmAL-20" vertex="1">
          <mxGeometry y="90" width="260" height="30" as="geometry" />
        </mxCell>
      </root>
    </mxGraphModel>
  </diagram>
</mxfile>
